<svg width="50" height="50" viewBox="0 0 50 50" fill="none" xmlns="http://www.w3.org/2000/svg">
<g clip-path="url(#clip0_181_122)">
<path d="M4.0415 44.2309C4.0415 44.2309 4.0415 41.3462 4.0415 40.9631C4.0415 36.7339 10.3816 32.8877 17.3077 31.5356C17.3077 31.5356 19.4261 30.3862 18.8477 28.2678C16.7293 25.5785 16.1509 22.6939 16.1509 22.6939C15.7678 22.4986 15.1893 22.1155 14.8062 21.7324C14.2278 20.9586 13.4616 18.6524 13.6569 16.9247C13.8447 15.3847 14.2278 15.9631 14.4231 15.58C12.8832 12.117 13.6569 7.6924 15.3847 4.42467C19.0355 -1.92298 26.7278 9.54568e-05 27.8847 2.30629C35.1938 0.961634 34.9985 12.5001 33.8492 15.3847C33.8492 15.3847 34.4201 15.58 34.4201 18.2693C34.2323 21.1539 31.9261 22.8817 31.9261 22.8817C31.9261 23.6554 30.9646 25.9616 29.4246 28.08C28.08 30.7693 30.7693 31.3477 30.7693 31.3477C37.6954 32.6924 44.0355 36.5386 44.0355 40.7678C44.0355 41.1509 44.0355 44.0355 44.0355 44.0355C44.0355 46.7324 33.6539 49.617 24.0385 49.617C14.6184 49.617 4.0415 48.6554 4.0415 44.2309Z" fill="black"/>
</g>
<defs>
<clipPath id="clip0_181_122">
<rect width="50" height="50" fill="white"/>
</clipPath>
</defs>
</svg>
