<svg width="50" height="50" viewBox="0 0 50 50" fill="none" xmlns="http://www.w3.org/2000/svg">
<path d="M24.963 1.05474C24.7531 1.06197 24.5508 1.13509 24.3848 1.26372L1.38485 19.211C1.17557 19.3742 1.03969 19.6138 1.00709 19.8771C0.974495 20.1405 1.04785 20.406 1.21102 20.6153C1.37419 20.8246 1.61381 20.9604 1.87717 20.993C2.14052 21.0256 2.40604 20.9523 2.61532 20.7891L4.00008 19.709V46C4.00011 46.2653 4.10547 46.5196 4.293 46.7071C4.48053 46.8947 4.73487 47 5.00008 47H18.8321C18.9401 47.0179 19.0503 47.0179 19.1583 47H30.8321C30.9401 47.0179 31.0503 47.0179 31.1583 47H45.0001C45.2653 47 45.5196 46.8947 45.7072 46.7071C45.8947 46.5196 46.0001 46.2653 46.0001 46V19.709L47.3848 20.7891C47.4885 20.8699 47.607 20.9295 47.7336 20.9645C47.8603 20.9995 47.9926 21.0092 48.123 20.9931C48.2534 20.9769 48.3794 20.9353 48.4937 20.8705C48.608 20.8056 48.7084 20.719 48.7892 20.6153C48.87 20.5117 48.9296 20.3932 48.9646 20.2665C48.9996 20.1399 49.0093 20.0075 48.9931 19.8771C48.977 19.7467 48.9353 19.6208 48.8705 19.5065C48.8057 19.3922 48.7189 19.2918 48.6153 19.211L41.0001 13.2696V6.00005H35.0001V8.58599L25.6153 1.26372C25.4292 1.11944 25.1982 1.04544 24.963 1.05474ZM25.0001 3.32231L44.0001 18.1485V45H32.0001V26H18.0001V45H6.00008V18.1485L25.0001 3.32231ZM37.0001 8.00005H39.0001V11.709L37.0001 10.1465V8.00005ZM20.0001 28H30.0001V45H20.0001V28Z" fill="black"/>
</svg>
