<svg width="25" height="25" viewBox="0 0 25 25" fill="none" xmlns="http://www.w3.org/2000/svg">
<title>Search Icon</title>
<path d="M10.5 1.5C5.80078 1.5 2 5.30078 2 10C2 14.6992 5.80078 18.5 10.5 18.5C12.1777 18.5 13.7305 18.0078 15.0469 17.1719L21.1875 23.3125L23.3125 21.1875L17.25 15.1406C18.3398 13.7109 19 11.9395 19 10C19 5.30078 15.1992 1.5 10.5 1.5ZM10.5 3.5C14.0996 3.5 17 6.40039 17 10C17 13.5996 14.0996 16.5 10.5 16.5C6.90039 16.5 4 13.5996 4 10C4 6.40039 6.90039 3.5 10.5 3.5Z" fill="black"/>
</svg>
